# xmcd CD database file
#
# Track frame offsets:
#	150
#	12564
#	26576
#	39921
#	53477
#	66985
#	78774
#	91316
#	105982
#	120619
#	135302
#	147334
#	160628
#	171930
#	183288
#	196639
#	209687
#	220672
#	235326
#	249117
#
# Disc length: 3498 seconds
#
# Revision: 0
# Processed by: cddbd v1.4PL0 Copyright (c) Steve Scherf et al.
# Submitted via: CDex 1.51
#
DISCID=fd0da814
DTITLE=Louis Armstrong - The 20 most requested
DYEAR=2000
DGENRE=Jazz
TTITLE0=When the saints go marching in
TTITLE1=Rockin chair
TTITLE2=Mahogany hall stomp
TTITLE3=I believe
TTITLE4=You rascal you
TTITLE5=Coquette
TTITLE6=I never knew
TTITLE7=Confessin
TTITLE8=I cover the waterfront
TTITLE9=Lazy bones
TTITLE10=Jeepers Creepers
TTITLE11=Aint misbehaving
TTITLE12=Shadrack
TTITLE13=Love walked in
TTITLE14=On the sunny side of the street
TTITLE15=Swing that music
TTITLE16=On the sentimental side
TTITLE17=I hope gabriel likes my music
TTITLE18=Red sails in the sunset
TTITLE19=I cant give you anything but love
EXTD=YEAR: 2000
EXTT0=
EXTT1=
EXTT2=
EXTT3=
EXTT4=
EXTT5=
EXTT6=
EXTT7=
EXTT8=
EXTT9=
EXTT10=
EXTT11=
EXTT12=
EXTT13=
EXTT14=
EXTT15=
EXTT16=
EXTT17=
EXTT18=
EXTT19=
PLAYORDER=
